<svg width="254" height="134" viewBox="0 0 254 134" fill="none" xmlns="http://www.w3.org/2000/svg">
<path d="M6.02 59.24C4.9 59.24 3.93333 59.06 3.12 58.7C2.32 58.34 1.67333 57.86 1.18 57.26L2.52 56.06C2.97333 56.5533 3.48 56.9333 4.04 57.2C4.61333 57.4533 5.28667 57.58 6.06 57.58C6.76667 57.58 7.33333 57.46 7.76 57.22C8.2 56.98 8.42 56.6067 8.42 56.1C8.42 55.8867 8.38 55.7067 8.3 55.56C8.22 55.4133 8.10667 55.2933 7.96 55.2C7.81333 55.1067 7.64 55.0333 7.44 54.98C7.25333 54.9267 7.05333 54.8867 6.84 54.86L5.2 54.6C4.8 54.5467 4.39333 54.46 3.98 54.34C3.56667 54.22 3.19333 54.0533 2.86 53.84C2.54 53.6133 2.27333 53.3267 2.06 52.98C1.86 52.6333 1.76 52.1933 1.76 51.66C1.76 50.6067 2.16 49.8067 2.96 49.26C3.77333 48.7133 4.84 48.44 6.16 48.44C7.12 48.44 7.94667 48.5867 8.64 48.88C9.34667 49.16 9.93333 49.5533 10.4 50.06L9.18 51.34C8.91333 51.0333 8.53333 50.7533 8.04 50.5C7.54667 50.2333 6.89333 50.1 6.08 50.1C4.62667 50.1 3.9 50.56 3.9 51.48C3.9 51.92 4.05333 52.2267 4.36 52.4C4.68 52.56 5.05333 52.6667 5.48 52.72L7.12 52.98C7.53333 53.0467 7.94 53.1333 8.34 53.24C8.75333 53.3467 9.12 53.5133 9.44 53.74C9.77333 53.9533 10.04 54.2333 10.24 54.58C10.4533 54.9267 10.56 55.3667 10.56 55.9C10.56 56.94 10.1533 57.76 9.34 58.36C8.54 58.9467 7.43333 59.24 6.02 59.24ZM21.8322 59C21.2055 59 20.7322 58.84 20.4122 58.52C20.1055 58.2 19.9189 57.78 19.8522 57.26H19.7522C19.5522 57.8867 19.1855 58.3733 18.6522 58.72C18.1322 59.0667 17.4655 59.24 16.6522 59.24C15.5989 59.24 14.7589 58.9667 14.1322 58.42C13.5055 57.86 13.1922 57.0933 13.1922 56.12C13.1922 55.12 13.5589 54.36 14.2922 53.84C15.0389 53.3067 16.1789 53.04 17.7122 53.04H19.6922V52.24C19.6922 50.84 18.9522 50.14 17.4722 50.14C16.8055 50.14 16.2655 50.2733 15.8522 50.54C15.4389 50.7933 15.0922 51.1333 14.8122 51.56L13.5122 50.5C13.8055 49.94 14.2989 49.46 14.9922 49.06C15.6855 48.6467 16.5789 48.44 17.6722 48.44C18.9789 48.44 20.0055 48.7533 20.7522 49.38C21.4989 50.0067 21.8722 50.9133 21.8722 52.1V57.28H23.1722V59H21.8322ZM17.2722 57.64C17.9789 57.64 18.5589 57.48 19.0122 57.16C19.4655 56.84 19.6922 56.4267 19.6922 55.92V54.42H17.7522C16.1789 54.42 15.3922 54.8933 15.3922 55.84V56.24C15.3922 56.7067 15.5589 57.06 15.8922 57.3C16.2255 57.5267 16.6855 57.64 17.2722 57.64ZM33.0044 48.68H35.2044L30.2044 61C29.9377 61.6667 29.5844 62.1667 29.1444 62.5C28.7177 62.8333 28.0977 63 27.2844 63H25.5444V61.24H27.9844L28.9244 58.86L24.7644 48.68H27.0444L28.6844 53L29.9644 56.54H30.0844L31.3644 53L33.0044 48.68ZM37.6566 44.2H39.8366V50.44H39.9366C40.0432 50.1733 40.1766 49.92 40.3366 49.68C40.5099 49.4267 40.7166 49.2133 40.9566 49.04C41.1966 48.8533 41.4766 48.7067 41.7966 48.6C42.1166 48.4933 42.4899 48.44 42.9166 48.44C43.9566 48.44 44.7966 48.78 45.4366 49.46C46.0766 50.14 46.3966 51.1067 46.3966 52.36V59H44.2166V52.68C44.2166 51.04 43.5032 50.22 42.0766 50.22C41.7966 50.22 41.5232 50.26 41.2566 50.34C40.9899 50.4067 40.7499 50.5133 40.5366 50.66C40.3232 50.8067 40.1499 50.9933 40.0166 51.22C39.8966 51.4467 39.8366 51.7067 39.8366 52V59H37.6566V44.2ZM54.6088 46.8C54.0488 46.8 53.6554 46.6867 53.4288 46.46C53.2154 46.2333 53.1087 45.9533 53.1087 45.62V45.2C53.1087 44.8667 53.2154 44.5867 53.4288 44.36C53.6554 44.1333 54.0421 44.02 54.5888 44.02C55.1488 44.02 55.5354 44.1333 55.7488 44.36C55.9754 44.5867 56.0888 44.8667 56.0888 45.2V45.62C56.0888 45.9533 55.9754 46.2333 55.7488 46.46C55.5354 46.6867 55.1554 46.8 54.6088 46.8ZM49.9888 57.24H53.5088V50.44H49.9888V48.68H55.6888V57.24H58.9887V59H49.9888V57.24ZM68.9809 61.24H66.6609C65.6076 61.24 64.7209 61.0667 64.0009 60.72C63.2809 60.3867 62.6943 59.8733 62.2409 59.18C61.8009 58.5 61.4809 57.64 61.2809 56.6C61.0943 55.56 61.0009 54.3467 61.0009 52.96C61.0009 51.4267 61.1076 50.14 61.3209 49.1C61.5476 48.06 61.8676 47.22 62.2809 46.58C62.7076 45.94 63.2276 45.4867 63.8409 45.22C64.4676 44.94 65.1809 44.8 65.9809 44.8C66.8076 44.8 67.5143 44.9267 68.1009 45.18C68.7009 45.4333 69.1943 45.78 69.5809 46.22C69.9676 46.66 70.2476 47.1867 70.4209 47.8C70.6076 48.4 70.7009 49.0467 70.7009 49.74V57.18H68.9809V56H68.8609C68.7143 56.4133 68.4876 56.7533 68.1809 57.02C67.8743 57.2733 67.4476 57.4 66.9009 57.4C66.1143 57.4 65.4876 57.06 65.0209 56.38C64.5543 55.6867 64.3209 54.6 64.3209 53.12C64.3209 51.64 64.5543 50.56 65.0209 49.88C65.4876 49.1867 66.1143 48.84 66.9009 48.84C67.4476 48.84 67.8743 48.9733 68.1809 49.24C68.4876 49.5067 68.7143 49.84 68.8609 50.24H68.9809V49.74C68.9809 47.4733 68.0076 46.34 66.0609 46.34C65.5143 46.34 65.0343 46.44 64.6209 46.64C64.2076 46.8267 63.8676 47.14 63.6009 47.58C63.3343 48.02 63.1343 48.5933 63.0009 49.3C62.8676 49.9933 62.8009 50.84 62.8009 51.84V54.42C62.8009 55.1933 62.8609 55.9067 62.9809 56.56C63.1009 57.2 63.3076 57.7533 63.6009 58.22C63.8943 58.6867 64.2876 59.0467 64.7809 59.3C65.2876 59.5667 65.9143 59.7 66.6609 59.7H68.9809V61.24ZM67.5809 56C68.0076 56 68.3476 55.88 68.6009 55.64C68.8543 55.4 68.9809 55.0533 68.9809 54.6V51.64C68.9809 51.1867 68.8543 50.84 68.6009 50.6C68.3476 50.36 68.0076 50.24 67.5809 50.24C67.1143 50.24 66.7543 50.4067 66.5009 50.74C66.2476 51.06 66.1209 51.64 66.1209 52.48V53.76C66.1209 54.6 66.2476 55.1867 66.5009 55.52C66.7543 55.84 67.1143 56 67.5809 56ZM73.5331 48.68H75.7131V50.44H75.8331C76.1398 49.8133 76.5465 49.3267 77.0531 48.98C77.5598 48.62 78.1931 48.44 78.9531 48.44C80.1665 48.44 81.1331 48.8933 81.8531 49.8C82.5731 50.7067 82.9331 52.0533 82.9331 53.84C82.9331 55.6267 82.5731 56.9733 81.8531 57.88C81.1331 58.7867 80.1665 59.24 78.9531 59.24C78.1931 59.24 77.5598 59.0667 77.0531 58.72C76.5465 58.36 76.1398 57.8667 75.8331 57.24H75.7131V63H73.5331V48.68ZM78.0531 57.46C78.8798 57.46 79.5131 57.2067 79.9531 56.7C80.4065 56.1933 80.6331 55.52 80.6331 54.68V53C80.6331 52.16 80.4065 51.4867 79.9531 50.98C79.5131 50.4733 78.8798 50.22 78.0531 50.22C77.7331 50.22 77.4331 50.26 77.1531 50.34C76.8731 50.42 76.6265 50.54 76.4131 50.7C76.1998 50.86 76.0265 51.06 75.8931 51.3C75.7731 51.5267 75.7131 51.8 75.7131 52.12V55.56C75.7131 55.88 75.7731 56.16 75.8931 56.4C76.0265 56.6267 76.1998 56.82 76.4131 56.98C76.6265 57.14 76.8731 57.26 77.1531 57.34C77.4331 57.42 77.7331 57.46 78.0531 57.46ZM93.7853 59C93.1586 59 92.6853 58.84 92.3653 58.52C92.0586 58.2 91.872 57.78 91.8053 57.26H91.7053C91.5053 57.8867 91.1386 58.3733 90.6053 58.72C90.0853 59.0667 89.4186 59.24 88.6053 59.24C87.552 59.24 86.712 58.9667 86.0853 58.42C85.4586 57.86 85.1453 57.0933 85.1453 56.12C85.1453 55.12 85.512 54.36 86.2453 53.84C86.992 53.3067 88.132 53.04 89.6653 53.04H91.6453V52.24C91.6453 50.84 90.9053 50.14 89.4253 50.14C88.7586 50.14 88.2186 50.2733 87.8053 50.54C87.392 50.7933 87.0453 51.1333 86.7653 51.56L85.4653 50.5C85.7586 49.94 86.252 49.46 86.9453 49.06C87.6386 48.6467 88.532 48.44 89.6253 48.44C90.932 48.44 91.9586 48.7533 92.7053 49.38C93.452 50.0067 93.8253 50.9133 93.8253 52.1V57.28H95.1253V59H93.7853ZM89.2253 57.64C89.932 57.64 90.512 57.48 90.9653 57.16C91.4186 56.84 91.6453 56.4267 91.6453 55.92V54.42H89.7053C88.132 54.42 87.3453 54.8933 87.3453 55.84V56.24C87.3453 56.7067 87.512 57.06 87.8453 57.3C88.1786 57.5267 88.6386 57.64 89.2253 57.64ZM97.4575 57.24H100.198V50.44H97.4575V48.68H102.378V51.42H102.498C102.591 51.06 102.724 50.7133 102.898 50.38C103.071 50.0467 103.291 49.76 103.558 49.52C103.824 49.2667 104.151 49.0667 104.538 48.92C104.924 48.76 105.378 48.68 105.898 48.68H107.138V50.76H105.098C104.298 50.76 103.644 51 103.138 51.48C102.631 51.9467 102.378 52.58 102.378 53.38V57.24H106.118V59H97.4575V57.24ZM109.69 44.2H111.87V53.14H111.97L113.59 51.48L116.49 48.68H119.07L114.89 52.74L119.53 59H116.91L113.31 53.98L111.87 55.32V59H109.69V44.2ZM126.142 59.24C125.355 59.24 124.649 59.1133 124.022 58.86C123.395 58.6067 122.869 58.2467 122.442 57.78C122.015 57.3133 121.689 56.7533 121.462 56.1C121.235 55.4333 121.122 54.6867 121.122 53.86C121.122 53.0333 121.235 52.2867 121.462 51.62C121.702 50.9533 122.029 50.3867 122.442 49.92C122.869 49.44 123.382 49.0733 123.982 48.82C124.582 48.5667 125.249 48.44 125.982 48.44C126.702 48.44 127.355 48.5667 127.942 48.82C128.529 49.06 129.029 49.4067 129.442 49.86C129.855 50.3133 130.169 50.8533 130.382 51.48C130.609 52.1067 130.722 52.8 130.722 53.56V54.38H123.322V54.72C123.322 55.5333 123.575 56.2 124.082 56.72C124.589 57.2267 125.289 57.48 126.182 57.48C126.849 57.48 127.415 57.34 127.882 57.06C128.362 56.7667 128.749 56.38 129.042 55.9L130.402 57.1C130.055 57.7 129.522 58.2067 128.802 58.62C128.095 59.0333 127.209 59.24 126.142 59.24ZM125.982 50.1C125.595 50.1 125.235 50.1667 124.902 50.3C124.582 50.4333 124.302 50.6267 124.062 50.88C123.835 51.12 123.655 51.4067 123.522 51.74C123.389 52.0733 123.322 52.44 123.322 52.84V52.98H128.502V52.78C128.502 51.9667 128.269 51.32 127.802 50.84C127.349 50.3467 126.742 50.1 125.982 50.1ZM133.434 57.24H136.174V50.44H133.434V48.68H138.354V51.42H138.474C138.567 51.06 138.701 50.7133 138.874 50.38C139.047 50.0467 139.267 49.76 139.534 49.52C139.801 49.2667 140.127 49.0667 140.514 48.92C140.901 48.76 141.354 48.68 141.874 48.68H143.114V50.76H141.074C140.274 50.76 139.621 51 139.114 51.48C138.607 51.9467 138.354 52.58 138.354 53.38V57.24H142.094V59H133.434V57.24ZM150.126 59.24C149.34 59.24 148.633 59.1133 148.006 58.86C147.38 58.6067 146.853 58.2467 146.426 57.78C146 57.3133 145.673 56.7533 145.446 56.1C145.22 55.4333 145.106 54.6867 145.106 53.86C145.106 53.0333 145.22 52.2867 145.446 51.62C145.686 50.9533 146.013 50.3867 146.426 49.92C146.853 49.44 147.366 49.0733 147.966 48.82C148.566 48.5667 149.233 48.44 149.966 48.44C150.686 48.44 151.34 48.5667 151.926 48.82C152.513 49.06 153.013 49.4067 153.426 49.86C153.84 50.3133 154.153 50.8533 154.366 51.48C154.593 52.1067 154.706 52.8 154.706 53.56V54.38H147.306V54.72C147.306 55.5333 147.56 56.2 148.066 56.72C148.573 57.2267 149.273 57.48 150.166 57.48C150.833 57.48 151.4 57.34 151.866 57.06C152.346 56.7667 152.733 56.38 153.026 55.9L154.386 57.1C154.04 57.7 153.506 58.2067 152.786 58.62C152.08 59.0333 151.193 59.24 150.126 59.24ZM149.966 50.1C149.58 50.1 149.22 50.1667 148.886 50.3C148.566 50.4333 148.286 50.6267 148.046 50.88C147.82 51.12 147.64 51.4067 147.506 51.74C147.373 52.0733 147.306 52.44 147.306 52.84V52.98H152.486V52.78C152.486 51.9667 152.253 51.32 151.786 50.84C151.333 50.3467 150.726 50.1 149.966 50.1ZM161.918 59.24C160.798 59.24 159.832 59.06 159.018 58.7C158.218 58.34 157.572 57.86 157.078 57.26L158.418 56.06C158.872 56.5533 159.378 56.9333 159.938 57.2C160.512 57.4533 161.185 57.58 161.958 57.58C162.665 57.58 163.232 57.46 163.658 57.22C164.098 56.98 164.318 56.6067 164.318 56.1C164.318 55.8867 164.278 55.7067 164.198 55.56C164.118 55.4133 164.005 55.2933 163.858 55.2C163.712 55.1067 163.538 55.0333 163.338 54.98C163.152 54.9267 162.952 54.8867 162.738 54.86L161.098 54.6C160.698 54.5467 160.292 54.46 159.878 54.34C159.465 54.22 159.092 54.0533 158.758 53.84C158.438 53.6133 158.172 53.3267 157.958 52.98C157.758 52.6333 157.658 52.1933 157.658 51.66C157.658 50.6067 158.058 49.8067 158.858 49.26C159.672 48.7133 160.738 48.44 162.058 48.44C163.018 48.44 163.845 48.5867 164.538 48.88C165.245 49.16 165.832 49.5533 166.298 50.06L165.078 51.34C164.812 51.0333 164.432 50.7533 163.938 50.5C163.445 50.2333 162.792 50.1 161.978 50.1C160.525 50.1 159.798 50.56 159.798 51.48C159.798 51.92 159.952 52.2267 160.258 52.4C160.578 52.56 160.952 52.6667 161.378 52.72L163.018 52.98C163.432 53.0467 163.838 53.1333 164.238 53.24C164.652 53.3467 165.018 53.5133 165.338 53.74C165.672 53.9533 165.938 54.2333 166.138 54.58C166.352 54.9267 166.458 55.3667 166.458 55.9C166.458 56.94 166.052 57.76 165.238 58.36C164.438 58.9467 163.332 59.24 161.918 59.24ZM168.771 59V48.68H170.631V50.02H170.731C170.891 49.58 171.117 49.2067 171.411 48.9C171.717 48.5933 172.151 48.44 172.711 48.44C173.257 48.44 173.677 48.5933 173.971 48.9C174.277 49.1933 174.471 49.6 174.551 50.12H174.631C174.817 49.6533 175.077 49.26 175.411 48.94C175.744 48.6067 176.224 48.44 176.851 48.44C177.651 48.44 178.204 48.72 178.511 49.28C178.831 49.84 178.991 50.66 178.991 51.74V59H177.131V52.02C177.131 51.3 177.044 50.8067 176.871 50.54C176.697 50.26 176.417 50.12 176.031 50.12C175.684 50.12 175.391 50.24 175.151 50.48C174.924 50.7067 174.811 51.0533 174.811 51.52V59H172.951V52.02C172.951 51.3 172.864 50.8067 172.691 50.54C172.531 50.26 172.257 50.12 171.871 50.12C171.511 50.12 171.211 50.24 170.971 50.48C170.744 50.7067 170.631 51.0533 170.631 51.52V59H168.771ZM189.723 59C189.096 59 188.623 58.84 188.303 58.52C187.996 58.2 187.809 57.78 187.743 57.26H187.643C187.443 57.8867 187.076 58.3733 186.543 58.72C186.023 59.0667 185.356 59.24 184.543 59.24C183.489 59.24 182.649 58.9667 182.023 58.42C181.396 57.86 181.083 57.0933 181.083 56.12C181.083 55.12 181.449 54.36 182.183 53.84C182.929 53.3067 184.069 53.04 185.603 53.04H187.583V52.24C187.583 50.84 186.843 50.14 185.363 50.14C184.696 50.14 184.156 50.2733 183.743 50.54C183.329 50.7933 182.983 51.1333 182.703 51.56L181.403 50.5C181.696 49.94 182.189 49.46 182.883 49.06C183.576 48.6467 184.469 48.44 185.563 48.44C186.869 48.44 187.896 48.7533 188.643 49.38C189.389 50.0067 189.763 50.9133 189.763 52.1V57.28H191.063V59H189.723ZM185.163 57.64C185.869 57.64 186.449 57.48 186.903 57.16C187.356 56.84 187.583 56.4267 187.583 55.92V54.42H185.643C184.069 54.42 183.283 54.8933 183.283 55.84V56.24C183.283 56.7067 183.449 57.06 183.783 57.3C184.116 57.5267 184.576 57.64 185.163 57.64ZM200.895 48.68H203.095L198.095 61C197.828 61.6667 197.475 62.1667 197.035 62.5C196.608 62.8333 195.988 63 195.175 63H193.435V61.24H195.875L196.815 58.86L192.655 48.68H194.935L196.575 53L197.855 56.54H197.975L199.255 53L200.895 48.68ZM209.867 59.2C209.227 59.2 208.774 59.0667 208.507 58.8C208.254 58.5333 208.127 58.2067 208.127 57.82V57.3C208.127 56.9133 208.254 56.5867 208.507 56.32C208.774 56.0533 209.227 55.92 209.867 55.92C210.507 55.92 210.954 56.0533 211.207 56.32C211.474 56.5867 211.607 56.9133 211.607 57.3V57.82C211.607 58.2067 211.474 58.5333 211.207 58.8C210.954 59.0667 210.507 59.2 209.867 59.2ZM222.239 59.24C221.466 59.24 220.773 59.1133 220.159 58.86C219.559 58.6067 219.046 58.2467 218.619 57.78C218.206 57.3133 217.886 56.7467 217.659 56.08C217.446 55.4133 217.339 54.6667 217.339 53.84C217.339 53.0133 217.446 52.2667 217.659 51.6C217.886 50.9333 218.206 50.3667 218.619 49.9C219.046 49.4333 219.559 49.0733 220.159 48.82C220.773 48.5667 221.459 48.44 222.219 48.44C223.286 48.44 224.139 48.6667 224.779 49.12C225.433 49.5733 225.919 50.16 226.239 50.88L224.539 51.8C224.353 51.32 224.066 50.94 223.679 50.66C223.306 50.38 222.819 50.24 222.219 50.24C221.393 50.24 220.753 50.4933 220.299 51C219.846 51.4933 219.619 52.1533 219.619 52.98V54.7C219.619 55.5133 219.846 56.1733 220.299 56.68C220.753 57.1867 221.406 57.44 222.259 57.44C222.899 57.44 223.419 57.2933 223.819 57C224.233 56.7067 224.559 56.3067 224.799 55.8L226.399 56.78C226.066 57.5 225.559 58.0933 224.879 58.56C224.199 59.0133 223.319 59.24 222.239 59.24ZM233.852 59.24C233.092 59.24 232.405 59.1133 231.792 58.86C231.192 58.6067 230.678 58.2467 230.252 57.78C229.838 57.3133 229.518 56.7467 229.292 56.08C229.065 55.4133 228.952 54.6667 228.952 53.84C228.952 53.0133 229.065 52.2667 229.292 51.6C229.518 50.9333 229.838 50.3667 230.252 49.9C230.678 49.4333 231.192 49.0733 231.792 48.82C232.405 48.5667 233.092 48.44 233.852 48.44C234.612 48.44 235.292 48.5667 235.892 48.82C236.505 49.0733 237.018 49.4333 237.432 49.9C237.858 50.3667 238.185 50.9333 238.412 51.6C238.638 52.2667 238.752 53.0133 238.752 53.84C238.752 54.6667 238.638 55.4133 238.412 56.08C238.185 56.7467 237.858 57.3133 237.432 57.78C237.018 58.2467 236.505 58.6067 235.892 58.86C235.292 59.1133 234.612 59.24 233.852 59.24ZM233.852 57.52C234.652 57.52 235.285 57.28 235.752 56.8C236.232 56.3067 236.472 55.58 236.472 54.62V53.06C236.472 52.1 236.232 51.38 235.752 50.9C235.285 50.4067 234.652 50.16 233.852 50.16C233.052 50.16 232.412 50.4067 231.932 50.9C231.465 51.38 231.232 52.1 231.232 53.06V54.62C231.232 55.58 231.465 56.3067 231.932 56.8C232.412 57.28 233.052 57.52 233.852 57.52ZM240.724 59V48.68H242.584V50.02H242.684C242.844 49.58 243.07 49.2067 243.364 48.9C243.67 48.5933 244.104 48.44 244.664 48.44C245.21 48.44 245.63 48.5933 245.924 48.9C246.23 49.1933 246.424 49.6 246.504 50.12H246.584C246.77 49.6533 247.03 49.26 247.364 48.94C247.697 48.6067 248.177 48.44 248.804 48.44C249.604 48.44 250.157 48.72 250.464 49.28C250.784 49.84 250.944 50.66 250.944 51.74V59H249.084V52.02C249.084 51.3 248.997 50.8067 248.824 50.54C248.65 50.26 248.37 50.12 247.984 50.12C247.637 50.12 247.344 50.24 247.104 50.48C246.877 50.7067 246.764 51.0533 246.764 51.52V59H244.904V52.02C244.904 51.3 244.817 50.8067 244.644 50.54C244.484 50.26 244.21 50.12 243.824 50.12C243.464 50.12 243.164 50.24 242.924 50.48C242.697 50.7067 242.584 51.0533 242.584 51.52V59H240.724Z" fill="white" fill-opacity="0.8"/>
<path d="M132.37 6.808H133.222L133.93 12.16H134.038L135.094 6.808H136.15L137.206 12.16H137.314L138.022 6.808H138.85L137.902 13H136.654L135.67 7.816H135.574L134.566 13H133.318L132.37 6.808ZM142.913 13.144C142.465 13.144 142.061 13.068 141.701 12.916C141.349 12.764 141.045 12.548 140.789 12.268C140.541 11.98 140.349 11.64 140.213 11.248C140.077 10.848 140.009 10.404 140.009 9.916C140.009 9.42 140.077 8.972 140.213 8.572C140.357 8.172 140.553 7.832 140.801 7.552C141.049 7.264 141.345 7.044 141.689 6.892C142.041 6.74 142.429 6.664 142.853 6.664C143.269 6.664 143.645 6.74 143.981 6.892C144.325 7.044 144.617 7.256 144.857 7.528C145.097 7.792 145.281 8.108 145.409 8.476C145.537 8.844 145.601 9.248 145.601 9.688V10.144H141.017V10.432C141.017 10.704 141.061 10.956 141.149 11.188C141.237 11.42 141.361 11.62 141.521 11.788C141.689 11.956 141.889 12.088 142.121 12.184C142.361 12.272 142.625 12.316 142.913 12.316C143.329 12.316 143.689 12.22 143.993 12.028C144.297 11.836 144.529 11.572 144.689 11.236L145.397 11.716C145.213 12.132 144.905 12.476 144.473 12.748C144.049 13.012 143.529 13.144 142.913 13.144ZM142.853 7.456C142.589 7.456 142.345 7.504 142.121 7.6C141.897 7.696 141.701 7.828 141.533 7.996C141.373 8.164 141.245 8.364 141.149 8.596C141.061 8.82 141.017 9.068 141.017 9.34V9.424H144.569V9.292C144.569 9.02 144.525 8.772 144.437 8.548C144.357 8.324 144.241 8.132 144.089 7.972C143.945 7.804 143.765 7.676 143.549 7.588C143.341 7.5 143.109 7.456 142.853 7.456ZM147.54 4.12H148.5V7.816H148.548C148.948 7.048 149.584 6.664 150.456 6.664C151.216 6.664 151.808 6.948 152.232 7.516C152.664 8.084 152.88 8.88 152.88 9.904C152.88 10.928 152.664 11.724 152.232 12.292C151.808 12.86 151.216 13.144 150.456 13.144C149.584 13.144 148.948 12.76 148.548 11.992H148.5V13H147.54V4.12ZM150.084 12.292C150.644 12.292 151.076 12.124 151.38 11.788C151.692 11.444 151.848 10.992 151.848 10.432V9.376C151.848 8.816 151.692 8.368 151.38 8.032C151.076 7.688 150.644 7.516 150.084 7.516C149.868 7.516 149.664 7.544 149.472 7.6C149.28 7.656 149.112 7.74 148.968 7.852C148.824 7.956 148.708 8.088 148.62 8.248C148.54 8.4 148.5 8.58 148.5 8.788V11.02C148.5 11.228 148.54 11.412 148.62 11.572C148.708 11.724 148.824 11.856 148.968 11.968C149.112 12.072 149.28 12.152 149.472 12.208C149.664 12.264 149.868 12.292 150.084 12.292ZM157.268 13.144C156.62 13.144 156.06 13.036 155.588 12.82C155.124 12.596 154.728 12.3 154.4 11.932L155.048 11.368C155.344 11.68 155.668 11.92 156.02 12.088C156.372 12.256 156.796 12.34 157.292 12.34C157.772 12.34 158.164 12.256 158.468 12.088C158.78 11.912 158.936 11.64 158.936 11.272C158.936 11.112 158.904 10.98 158.84 10.876C158.784 10.764 158.704 10.676 158.6 10.612C158.496 10.548 158.38 10.5 158.252 10.468C158.124 10.428 157.988 10.396 157.844 10.372L156.872 10.228C156.656 10.196 156.42 10.152 156.164 10.096C155.916 10.04 155.688 9.952 155.48 9.832C155.272 9.704 155.096 9.536 154.952 9.328C154.816 9.12 154.748 8.848 154.748 8.512C154.748 8.2 154.808 7.932 154.928 7.708C155.056 7.476 155.232 7.284 155.456 7.132C155.68 6.972 155.944 6.856 156.248 6.784C156.552 6.704 156.884 6.664 157.244 6.664C157.804 6.664 158.288 6.752 158.696 6.928C159.112 7.104 159.468 7.348 159.764 7.66L159.14 8.248C159.068 8.16 158.976 8.072 158.864 7.984C158.76 7.888 158.628 7.804 158.468 7.732C158.316 7.652 158.136 7.588 157.928 7.54C157.72 7.492 157.48 7.468 157.208 7.468C156.72 7.468 156.344 7.552 156.08 7.72C155.824 7.888 155.696 8.132 155.696 8.452C155.696 8.612 155.724 8.748 155.78 8.86C155.844 8.964 155.928 9.048 156.032 9.112C156.136 9.176 156.252 9.228 156.38 9.268C156.516 9.3 156.652 9.328 156.788 9.352L157.76 9.496C157.984 9.528 158.22 9.572 158.468 9.628C158.716 9.684 158.944 9.776 159.152 9.904C159.36 10.024 159.532 10.188 159.668 10.396C159.812 10.604 159.884 10.876 159.884 11.212C159.884 11.828 159.644 12.304 159.164 12.64C158.692 12.976 158.06 13.144 157.268 13.144ZM164.775 5.44C164.495 5.44 164.299 5.384 164.187 5.272C164.075 5.152 164.019 5.004 164.019 4.828V4.636C164.019 4.46 164.075 4.316 164.187 4.204C164.299 4.084 164.495 4.024 164.775 4.024C165.055 4.024 165.251 4.084 165.363 4.204C165.475 4.316 165.531 4.46 165.531 4.636V4.828C165.531 5.004 165.475 5.152 165.363 5.272C165.251 5.384 165.055 5.44 164.775 5.44ZM162.063 12.184H164.295V7.624H162.063V6.808H165.255V12.184H167.343V13H162.063V12.184ZM171.886 13C171.414 13 171.066 12.868 170.842 12.604C170.626 12.34 170.518 12 170.518 11.584V7.624H168.454V6.808H169.99C170.198 6.808 170.342 6.768 170.422 6.688C170.51 6.6 170.554 6.452 170.554 6.244V4.624H171.478V6.808H174.298V7.624H171.478V12.184H174.298V13H171.886ZM178.89 13.144C178.442 13.144 178.038 13.068 177.678 12.916C177.326 12.764 177.022 12.548 176.766 12.268C176.518 11.98 176.326 11.64 176.19 11.248C176.054 10.848 175.986 10.404 175.986 9.916C175.986 9.42 176.054 8.972 176.19 8.572C176.334 8.172 176.53 7.832 176.778 7.552C177.026 7.264 177.322 7.044 177.666 6.892C178.018 6.74 178.406 6.664 178.83 6.664C179.246 6.664 179.622 6.74 179.958 6.892C180.302 7.044 180.594 7.256 180.834 7.528C181.074 7.792 181.258 8.108 181.386 8.476C181.514 8.844 181.578 9.248 181.578 9.688V10.144H176.994V10.432C176.994 10.704 177.038 10.956 177.126 11.188C177.214 11.42 177.338 11.62 177.498 11.788C177.666 11.956 177.866 12.088 178.098 12.184C178.338 12.272 178.602 12.316 178.89 12.316C179.306 12.316 179.666 12.22 179.97 12.028C180.274 11.836 180.506 11.572 180.666 11.236L181.374 11.716C181.19 12.132 180.882 12.476 180.45 12.748C180.026 13.012 179.506 13.144 178.89 13.144ZM178.83 7.456C178.566 7.456 178.322 7.504 178.098 7.6C177.874 7.696 177.678 7.828 177.51 7.996C177.35 8.164 177.222 8.364 177.126 8.596C177.038 8.82 176.994 9.068 176.994 9.34V9.424H180.546V9.292C180.546 9.02 180.502 8.772 180.414 8.548C180.334 8.324 180.218 8.132 180.066 7.972C179.922 7.804 179.742 7.676 179.526 7.588C179.318 7.5 179.086 7.456 178.83 7.456Z" fill="white" fill-opacity="0.8"/>
<path d="M252.996 17.3989L72.0001 18.6008" stroke="white" stroke-opacity="0.4"/>
<line x1="252.499" y1="17.9023" x2="252.532" y2="22.9022" stroke="white" stroke-opacity="0.4"/>
<line x1="72.5029" y1="19.0975" x2="72.5361" y2="24.0974" stroke="white" stroke-opacity="0.4"/>
<path d="M109.708 125.144C109.26 125.144 108.856 125.068 108.496 124.916C108.144 124.764 107.84 124.548 107.584 124.268C107.336 123.98 107.144 123.64 107.008 123.248C106.872 122.848 106.804 122.404 106.804 121.916C106.804 121.42 106.872 120.972 107.008 120.572C107.152 120.172 107.348 119.832 107.596 119.552C107.844 119.264 108.14 119.044 108.484 118.892C108.836 118.74 109.224 118.664 109.648 118.664C110.064 118.664 110.44 118.74 110.776 118.892C111.12 119.044 111.412 119.256 111.652 119.528C111.892 119.792 112.076 120.108 112.204 120.476C112.332 120.844 112.396 121.248 112.396 121.688V122.144H107.812V122.432C107.812 122.704 107.856 122.956 107.944 123.188C108.032 123.42 108.156 123.62 108.316 123.788C108.484 123.956 108.684 124.088 108.916 124.184C109.156 124.272 109.42 124.316 109.708 124.316C110.124 124.316 110.484 124.22 110.788 124.028C111.092 123.836 111.324 123.572 111.484 123.236L112.192 123.716C112.008 124.132 111.7 124.476 111.268 124.748C110.844 125.012 110.324 125.144 109.708 125.144ZM109.648 119.456C109.384 119.456 109.14 119.504 108.916 119.6C108.692 119.696 108.496 119.828 108.328 119.996C108.168 120.164 108.04 120.364 107.944 120.596C107.856 120.82 107.812 121.068 107.812 121.34V121.424H111.364V121.292C111.364 121.02 111.32 120.772 111.232 120.548C111.152 120.324 111.036 120.132 110.884 119.972C110.74 119.804 110.56 119.676 110.344 119.588C110.136 119.5 109.904 119.456 109.648 119.456ZM113.843 125V118.808H114.731V119.528H114.779C114.875 119.288 115.011 119.084 115.187 118.916C115.363 118.748 115.623 118.664 115.967 118.664C116.327 118.664 116.595 118.756 116.771 118.94C116.947 119.116 117.055 119.348 117.095 119.636H117.131C117.243 119.356 117.403 119.124 117.611 118.94C117.819 118.756 118.107 118.664 118.475 118.664C118.979 118.664 119.315 118.84 119.483 119.192C119.659 119.544 119.747 120.048 119.747 120.704V125H118.859V120.86C118.859 120.332 118.803 119.968 118.691 119.768C118.587 119.56 118.391 119.456 118.103 119.456C117.847 119.456 117.639 119.54 117.479 119.708C117.319 119.868 117.239 120.116 117.239 120.452V125H116.351V120.86C116.351 120.332 116.295 119.968 116.183 119.768C116.079 119.56 115.887 119.456 115.607 119.456C115.351 119.456 115.139 119.54 114.971 119.708C114.811 119.868 114.731 120.116 114.731 120.452V125H113.843ZM126.331 125C125.955 125 125.687 124.904 125.527 124.712C125.367 124.52 125.267 124.28 125.227 123.992H125.167C125.031 124.352 124.811 124.636 124.507 124.844C124.211 125.044 123.811 125.144 123.307 125.144C122.659 125.144 122.143 124.976 121.759 124.64C121.375 124.304 121.183 123.844 121.183 123.26C121.183 122.684 121.391 122.24 121.807 121.928C122.231 121.616 122.911 121.46 123.847 121.46H125.167V120.848C125.167 120.392 125.039 120.052 124.783 119.828C124.527 119.596 124.163 119.48 123.691 119.48C123.275 119.48 122.935 119.564 122.671 119.732C122.407 119.892 122.195 120.112 122.035 120.392L121.387 119.912C121.467 119.752 121.575 119.596 121.711 119.444C121.847 119.292 122.015 119.16 122.215 119.048C122.415 118.928 122.643 118.836 122.899 118.772C123.155 118.7 123.439 118.664 123.751 118.664C124.479 118.664 125.055 118.848 125.479 119.216C125.911 119.584 126.127 120.096 126.127 120.752V124.16H126.991V125H126.331ZM123.475 124.34C123.723 124.34 123.947 124.312 124.147 124.256C124.355 124.192 124.535 124.112 124.687 124.016C124.839 123.912 124.955 123.792 125.035 123.656C125.123 123.512 125.167 123.36 125.167 123.2V122.18H123.847C123.271 122.18 122.851 122.26 122.587 122.42C122.323 122.58 122.191 122.812 122.191 123.116V123.368C122.191 123.688 122.303 123.932 122.527 124.1C122.759 124.26 123.075 124.34 123.475 124.34ZM131.57 117.44C131.29 117.44 131.094 117.384 130.982 117.272C130.87 117.152 130.814 117.004 130.814 116.828V116.636C130.814 116.46 130.87 116.316 130.982 116.204C131.094 116.084 131.29 116.024 131.57 116.024C131.85 116.024 132.046 116.084 132.158 116.204C132.27 116.316 132.326 116.46 132.326 116.636V116.828C132.326 117.004 132.27 117.152 132.158 117.272C132.046 117.384 131.85 117.44 131.57 117.44ZM128.858 124.184H131.09V119.624H128.858V118.808H132.05V124.184H134.138V125H128.858V124.184ZM135.741 124.184H137.901V116.936H135.741V116.12H138.861V124.184H141.021V125H135.741V124.184Z" fill="white" fill-opacity="0.8"/>
<path d="M1 133.5H253" stroke="white" stroke-opacity="0.4"/>
<line x1="1.5" y1="133" x2="1.5" y2="128" stroke="white" stroke-opacity="0.4"/>
<line x1="252.5" y1="133" x2="252.5" y2="128" stroke="white" stroke-opacity="0.4"/>
<path d="M105.9 93C105.428 93 105.08 92.868 104.856 92.604C104.64 92.34 104.532 92 104.532 91.584V87.624H102.468V86.808H104.004C104.212 86.808 104.356 86.768 104.436 86.688C104.524 86.6 104.568 86.452 104.568 86.244V84.624H105.492V86.808H108.312V87.624H105.492V92.184H108.312V93H105.9ZM109.555 86.808H110.407L111.115 92.16H111.223L112.279 86.808H113.335L114.391 92.16H114.499L115.207 86.808H116.035L115.087 93H113.839L112.855 87.816H112.759L111.751 93H110.503L109.555 86.808ZM120.375 85.44C120.095 85.44 119.899 85.384 119.787 85.272C119.675 85.152 119.619 85.004 119.619 84.828V84.636C119.619 84.46 119.675 84.316 119.787 84.204C119.899 84.084 120.095 84.024 120.375 84.024C120.655 84.024 120.851 84.084 120.963 84.204C121.075 84.316 121.131 84.46 121.131 84.636V84.828C121.131 85.004 121.075 85.152 120.963 85.272C120.851 85.384 120.655 85.44 120.375 85.44ZM117.663 92.184H119.895V87.624H117.663V86.808H120.855V92.184H122.943V93H117.663V92.184ZM127.486 93C127.014 93 126.666 92.868 126.442 92.604C126.226 92.34 126.118 92 126.118 91.584V87.624H124.054V86.808H125.59C125.798 86.808 125.942 86.768 126.022 86.688C126.11 86.6 126.154 86.452 126.154 86.244V84.624H127.078V86.808H129.898V87.624H127.078V92.184H129.898V93H127.486ZM134.681 93C134.209 93 133.861 92.868 133.637 92.604C133.421 92.34 133.313 92 133.313 91.584V87.624H131.249V86.808H132.785C132.993 86.808 133.137 86.768 133.217 86.688C133.305 86.6 133.349 86.452 133.349 86.244V84.624H134.273V86.808H137.093V87.624H134.273V92.184H137.093V93H134.681ZM141.685 93.144C141.237 93.144 140.833 93.068 140.473 92.916C140.121 92.764 139.817 92.548 139.561 92.268C139.313 91.98 139.121 91.64 138.985 91.248C138.849 90.848 138.781 90.404 138.781 89.916C138.781 89.42 138.849 88.972 138.985 88.572C139.129 88.172 139.325 87.832 139.573 87.552C139.821 87.264 140.117 87.044 140.461 86.892C140.813 86.74 141.201 86.664 141.625 86.664C142.041 86.664 142.417 86.74 142.753 86.892C143.097 87.044 143.389 87.256 143.629 87.528C143.869 87.792 144.053 88.108 144.181 88.476C144.309 88.844 144.373 89.248 144.373 89.688V90.144H139.789V90.432C139.789 90.704 139.833 90.956 139.921 91.188C140.009 91.42 140.133 91.62 140.293 91.788C140.461 91.956 140.661 92.088 140.893 92.184C141.133 92.272 141.397 92.316 141.685 92.316C142.101 92.316 142.461 92.22 142.765 92.028C143.069 91.836 143.301 91.572 143.461 91.236L144.169 91.716C143.985 92.132 143.677 92.476 143.245 92.748C142.821 93.012 142.301 93.144 141.685 93.144ZM141.625 87.456C141.361 87.456 141.117 87.504 140.893 87.6C140.669 87.696 140.473 87.828 140.305 87.996C140.145 88.164 140.017 88.364 139.921 88.596C139.833 88.82 139.789 89.068 139.789 89.34V89.424H143.341V89.292C143.341 89.02 143.297 88.772 143.209 88.548C143.129 88.324 143.013 88.132 142.861 87.972C142.717 87.804 142.537 87.676 142.321 87.588C142.113 87.5 141.881 87.456 141.625 87.456ZM146.096 92.184H147.908V87.624H146.096V86.808H148.868V88.368H148.928C149.056 87.88 149.296 87.5 149.648 87.228C150.008 86.948 150.464 86.808 151.016 86.808H151.88V87.768H150.716C150.164 87.768 149.716 87.928 149.372 88.248C149.036 88.568 148.868 88.988 148.868 89.508V92.184H151.268V93H146.096V92.184Z" fill="white" fill-opacity="0.8"/>
<path d="M63 101.5H197" stroke="white" stroke-opacity="0.4"/>
<line x1="63.5" y1="101" x2="63.5" y2="96" stroke="white" stroke-opacity="0.4"/>
<line x1="196.5" y1="101" x2="196.5" y2="96" stroke="white" stroke-opacity="0.4"/>
</svg>
